<svg width="31" height="30" viewBox="0 0 31 30" fill="none" xmlns="http://www.w3.org/2000/svg">
<g clip-path="url(#clip0_41_193)">
<path d="M4.25 3.75H26.75C27.0815 3.75 27.3995 3.8817 27.6339 4.11612C27.8683 4.35054 28 4.66848 28 5V25C28 25.3315 27.8683 25.6495 27.6339 25.8839C27.3995 26.1183 27.0815 26.25 26.75 26.25H4.25C3.91848 26.25 3.60054 26.1183 3.36612 25.8839C3.1317 25.6495 3 25.3315 3 25V5C3 4.66848 3.1317 4.35054 3.36612 4.11612C3.60054 3.8817 3.91848 3.75 4.25 3.75ZM25.5 9.0475L15.59 17.9225L5.5 9.02V23.75H25.5V9.0475ZM6.13875 6.25L15.5762 14.5775L24.8775 6.25H6.13875Z" fill="white"/>
</g>
<defs>
<clipPath id="clip0_41_193">
<rect width="30" height="30" fill="white" transform="translate(0.5)"/>
</clipPath>
</defs>
</svg>
