<svg width="30" height="30" viewBox="0 0 30 30" fill="none" xmlns="http://www.w3.org/2000/svg">
<path d="M15 29.0446C7.23328 29.0446 0.9375 22.7488 0.9375 14.9821C0.9375 7.21537 7.23328 0.919586 15 0.919586C22.7667 0.919586 29.0625 7.21537 29.0625 14.9821C29.0625 22.7488 22.7667 29.0446 15 29.0446ZM11.7797 25.7638C10.3923 22.821 9.58857 19.6371 9.41297 16.3883H3.83719C4.11082 18.5524 5.00708 20.5904 6.41705 22.2548C7.82702 23.9192 9.69002 25.1382 11.7797 25.7638ZM12.2297 16.3883C12.442 19.8182 13.4222 23.0399 15 25.8833C16.6204 22.9647 17.567 19.7204 17.7703 16.3883H12.2297ZM26.1628 16.3883H20.587C20.4114 19.6371 19.6077 22.821 18.2203 25.7638C20.31 25.1382 22.173 23.9192 23.583 22.2548C24.9929 20.5904 25.8892 18.5524 26.1628 16.3883ZM3.83719 13.5758H9.41297C9.58857 10.3271 10.3923 7.14321 11.7797 4.20037C9.69002 4.82598 7.82702 6.04502 6.41705 7.70938C5.00708 9.37373 4.11082 11.4118 3.83719 13.5758ZM12.2311 13.5758H17.7689C17.5661 10.2439 16.62 6.99955 15 4.08084C13.3796 6.99944 12.433 10.2438 12.2297 13.5758H12.2311ZM18.2203 4.20037C19.6077 7.14321 20.4114 10.3271 20.587 13.5758H26.1628C25.8892 11.4118 24.9929 9.37373 23.583 7.70938C22.173 6.04502 20.31 4.82598 18.2203 4.20037Z" fill="black"/>
</svg>
