<svg width="30" height="29" viewBox="0 0 30 29" fill="none" xmlns="http://www.w3.org/2000/svg">
<path d="M15 28.6262C7.23328 28.6262 0.9375 22.3666 0.9375 14.6446C0.9375 6.92251 7.23328 0.662933 15 0.662933C22.7667 0.662933 29.0625 6.92251 29.0625 14.6446C29.0625 22.3666 22.7667 28.6262 15 28.6262ZM11.7797 25.3643C10.3923 22.4384 9.58857 19.2728 9.41297 16.0427H3.83719C4.11082 18.1943 5.00708 20.2207 6.41705 21.8754C7.82702 23.5302 9.69002 24.7423 11.7797 25.3643ZM12.2297 16.0427C12.442 19.4528 13.4222 22.656 15 25.4831C16.6204 22.5813 17.567 19.3556 17.7703 16.0427H12.2297ZM26.1628 16.0427H20.587C20.4114 19.2728 19.6077 22.4384 18.2203 25.3643C20.31 24.7423 22.173 23.5302 23.583 21.8754C24.9929 20.2207 25.8892 18.1943 26.1628 16.0427ZM3.83719 13.2464H9.41297C9.58857 10.0163 10.3923 6.85076 11.7797 3.92485C9.69002 4.54686 7.82702 5.75889 6.41705 7.41367C5.00708 9.06846 4.11082 11.0948 3.83719 13.2464ZM12.2311 13.2464H17.7689C17.5661 9.93359 16.62 6.70793 15 3.806C13.3796 6.70782 12.433 9.93348 12.2297 13.2464H12.2311ZM18.2203 3.92485C19.6077 6.85076 20.4114 10.0163 20.587 13.2464H26.1628C25.8892 11.0948 24.9929 9.06846 23.583 7.41367C22.173 5.75889 20.31 4.54686 18.2203 3.92485Z" fill="white"/>
</svg>
