<svg width="20" height="21" viewBox="0 0 20 21" fill="none" xmlns="http://www.w3.org/2000/svg">
<g clip-path="url(#clip0_96_2530)">
<path d="M10 20.2785L4.69667 14.9751C3.64779 13.9262 2.93349 12.5899 2.64411 11.135C2.35473 9.68016 2.50326 8.17217 3.07092 6.80173C3.63858 5.43129 4.59987 4.25995 5.83324 3.43585C7.0666 2.61174 8.51665 2.17188 10 2.17188C11.4834 2.17187 12.9334 2.61174 14.1668 3.43585C15.4001 4.25995 16.3614 5.43129 16.9291 6.80173C17.4968 8.17217 17.6453 9.68016 17.3559 11.135C17.0665 12.5899 16.3522 13.9262 15.3033 14.9751L10 20.2785ZM14.125 13.7968C14.9408 12.981 15.4963 11.9416 15.7213 10.81C15.9463 9.6785 15.8308 8.50564 15.3892 7.43977C14.9477 6.37391 14.2 5.4629 13.2408 4.82195C12.2815 4.181 11.1537 3.8389 10 3.8389C8.8463 3.8389 7.71851 4.181 6.75924 4.82195C5.79997 5.4629 5.05229 6.37391 4.61076 7.43977C4.16923 8.50564 4.05368 9.6785 4.27871 10.81C4.50374 11.9416 5.05926 12.981 5.875 13.7968L10 17.9218L14.125 13.7968ZM10 11.3385C9.55798 11.3385 9.13405 11.1629 8.82149 10.8503C8.50893 10.5378 8.33334 10.1138 8.33334 9.67181C8.33334 9.22978 8.50893 8.80586 8.82149 8.4933C9.13405 8.18074 9.55798 8.00514 10 8.00514C10.442 8.00514 10.866 8.18074 11.1785 8.4933C11.4911 8.80586 11.6667 9.22978 11.6667 9.67181C11.6667 10.1138 11.4911 10.5378 11.1785 10.8503C10.866 11.1629 10.442 11.3385 10 11.3385Z" fill="#B7B7B7"/>
</g>
<defs>
<clipPath id="clip0_96_2530">
<rect width="20" height="20" fill="white" transform="translate(0 0.505127)"/>
</clipPath>
</defs>
</svg>
