<svg width="54" height="48" viewBox="0 0 54 48" fill="none" xmlns="http://www.w3.org/2000/svg">
<path d="M7.47941 4.54754C8.64768 4.55086 9.7061 4.82647 10.6547 5.37438C11.619 5.90674 12.3724 6.66436 12.9148 7.64726C13.4572 8.61458 13.7266 9.7447 13.7229 11.0376C13.7192 12.3304 13.4434 13.4668 12.8954 14.4466C12.3475 15.4108 11.5898 16.1641 10.6225 16.7066C9.6708 17.2335 8.61082 17.4953 7.44254 17.492C5.83813 17.4874 4.57784 16.9776 3.66168 15.9624L3.64498 21.8271L0 21.8167L0.048686 4.71333L3.53012 4.72322L3.52598 6.17188C4.43255 5.08407 5.75038 4.54263 7.47941 4.54754ZM6.82019 14.4994C7.75481 14.5021 8.51896 14.1927 9.11265 13.5713C9.722 12.9344 10.0282 12.0863 10.0312 11.0271C10.0342 9.96785 9.73284 9.12583 9.12709 8.501C8.53699 7.86069 7.77463 7.53917 6.84001 7.5365C5.90539 7.53385 5.13344 7.851 4.52413 8.48792C3.93044 9.1093 3.63207 9.94962 3.62906 11.0088C3.62604 12.0681 3.9196 12.9178 4.5097 13.5582C5.11542 14.183 5.88557 14.4967 6.82019 14.4994ZM28.9383 4.79556L28.9025 17.3661L25.4211 17.3562L25.4252 15.9075C24.5186 16.9954 23.2086 17.5368 21.4952 17.5319C20.3113 17.5286 19.2373 17.2607 18.273 16.7283C17.3243 16.196 16.5788 15.4384 16.0364 14.4555C15.494 13.4726 15.2246 12.3348 15.2283 11.0419C15.232 9.74897 15.5078 8.61264 16.0558 7.63286C16.6038 6.65304 17.3536 5.8997 18.3053 5.37279C19.2726 4.84591 20.3482 4.58417 21.532 4.58756C23.1364 4.59213 24.3889 5.10193 25.2895 6.11702L25.2933 4.7852L28.9383 4.79556ZM22.1346 14.543C23.0536 14.5456 23.8177 14.2362 24.427 13.6149C25.0363 12.978 25.3425 12.1299 25.3455 11.0707C25.3485 10.0114 25.0472 9.1694 24.4415 8.54461C23.8358 7.90423 23.0734 7.58271 22.1544 7.5801C21.2198 7.57746 20.4478 7.89457 19.8385 8.5315C19.2292 9.15283 18.9231 9.99312 18.92 11.0524C18.917 12.1116 19.2183 12.9614 19.824 13.6018C20.4297 14.2266 21.1999 14.5403 22.1346 14.543ZM33.9204 6.46869C34.3582 5.86243 34.9437 5.40457 35.6769 5.09512C36.4254 4.7857 37.2826 4.63239 38.2482 4.63513L38.2388 7.99974C37.8339 7.96745 37.5611 7.95109 37.4212 7.95068C36.3772 7.94773 35.5586 8.24136 34.965 8.83159C34.3717 9.40624 34.0732 10.2777 34.0698 11.446L34.0529 17.3808L30.4079 17.3704L30.4437 4.79983L33.9252 4.80976L33.9204 6.46869ZM45.2067 12.4824L43.4492 14.2065L43.4401 17.4075L39.795 17.3971L39.8445 0.0600281L43.4895 0.070396L43.4614 9.88385L48.8034 4.85211L53.1491 4.86448L47.9 10.1769L53.5808 17.4364L49.1645 17.4238L45.2067 12.4824Z" fill="black"/>
<path d="M17.8769 30.1312C17.4224 29.2882 16.763 28.6492 15.8985 28.2138C15.0582 27.7545 14.0609 27.5232 12.9066 27.5199C10.9108 27.5142 9.30976 28.171 8.10364 29.4901C6.89763 30.7851 6.29147 32.527 6.28527 34.7152C6.27862 37.0477 6.89861 38.877 8.14529 40.2031C9.41609 41.5053 11.1576 42.1595 13.3699 42.166C14.8849 42.17 16.1605 41.7892 17.1967 41.0224C18.2569 40.256 19.0295 39.1521 19.5146 37.7107L11.6873 37.6884L11.7003 33.1434L25.1184 33.1816L25.1021 38.917C24.6408 40.4546 23.8552 41.883 22.7453 43.2024C21.6594 44.5222 20.2737 45.5881 18.5881 46.401C16.9025 47.2138 15.0016 47.617 12.8855 47.6112C10.3846 47.6041 8.14983 47.0566 6.18108 45.969C4.23642 44.8573 2.7138 43.3258 1.6132 41.3748C0.536642 39.4242 0.00192358 37.1981 0.00904231 34.6972C0.0161611 32.1963 0.563545 29.9736 1.65119 28.0289C2.76296 26.0603 4.29429 24.5377 6.24515 23.4611C8.19608 22.3605 10.422 21.8137 12.9228 21.8208C15.9528 21.8295 18.4996 22.5702 20.5635 24.0429C22.6513 25.5157 24.0283 27.5516 24.6942 30.1505L17.8769 30.1312ZM39.6746 47.9399C37.0538 47.9324 34.6868 47.3605 32.5738 46.2244C30.4849 45.0883 28.8421 43.5324 27.6454 41.5571C26.4728 39.558 25.89 37.3201 25.8971 34.8433C25.9041 32.3664 26.4996 30.1437 27.6835 28.1752C28.8915 26.1827 30.5432 24.6244 32.6386 23.5001C34.7579 22.376 37.128 21.8176 39.7492 21.8251C42.3703 21.8325 44.7252 22.4043 46.814 23.5405C48.9029 24.6766 50.5455 26.2444 51.7423 28.2436C52.939 30.219 53.534 32.445 53.5269 34.9219C53.5197 37.3987 52.9122 39.6332 51.7043 41.6259C50.4964 43.5941 48.8446 45.1405 46.7493 46.2647C44.654 47.389 42.2958 47.9474 39.6746 47.9399ZM39.6889 42.9622C41.1797 42.9663 42.5275 42.6335 43.7317 41.9637C44.9359 41.2698 45.8765 40.3106 46.5535 39.086C47.2542 37.8619 47.6069 36.4679 47.6113 34.9049C47.6157 33.3419 47.2711 31.9463 46.5772 30.7177C45.9073 29.4895 44.9722 28.537 43.7717 27.8603C42.5716 27.1595 41.2258 26.807 39.7349 26.8028C38.2441 26.7985 36.8966 27.1434 35.6921 27.8373C34.4879 28.5072 33.5354 29.4542 32.8344 30.6787C32.1577 31.9033 31.817 33.2968 31.8126 34.8599C31.8081 36.4229 32.1408 37.8188 32.8107 39.0471C33.5046 40.2753 34.4516 41.2399 35.6521 41.9406C36.8525 42.6176 38.198 42.9578 39.6889 42.9622Z" fill="black"/>
<path d="M39.6838 38.3165C38.6921 38.3138 37.8585 37.9726 37.1833 37.2936C36.508 36.6143 36.1719 35.7669 36.1746 34.7511C36.1776 33.7109 36.5185 32.8774 37.1975 32.2505C37.8768 31.5993 38.712 31.275 39.7038 31.2781C40.6955 31.2808 41.529 31.6098 42.2043 32.2648C42.8799 32.8957 43.2161 33.7309 43.2133 34.7711C43.2103 35.7869 42.8694 36.6326 42.1901 37.3078C41.5111 37.9831 40.6755 38.3192 39.6838 38.3165Z" fill="#70A4D7"/>
</svg>
