<svg width="54" height="49" viewBox="0 0 54 49" fill="none" xmlns="http://www.w3.org/2000/svg">
<path d="M7.47941 5.31794C8.64768 5.32124 9.7061 5.59526 10.6547 6.14002C11.619 6.66932 12.3724 7.42258 12.9148 8.39983C13.4572 9.36158 13.7266 10.4852 13.7229 11.7706C13.7192 13.0561 13.4434 14.1859 12.8954 15.16C12.3475 16.1187 11.5898 16.8677 10.6225 17.407C9.6708 17.9309 8.61082 18.1912 7.44254 18.1879C5.83813 18.1834 4.57784 17.6765 3.66168 16.6672L3.64498 22.4981L0 22.4878L0.048686 5.48277L3.53012 5.49261L3.52598 6.93293C4.43255 5.85138 5.75038 5.31305 7.47941 5.31794ZM6.82019 15.2125C7.75481 15.2152 8.51896 14.9076 9.11265 14.2898C9.722 13.6565 10.0282 12.8133 10.0312 11.7602C10.0342 10.7071 9.73284 9.86989 9.12709 9.24866C8.53699 8.61203 7.77463 8.29236 6.84001 8.2897C5.90539 8.28707 5.13344 8.60239 4.52413 9.23565C3.93044 9.85345 3.63207 10.6889 3.62906 11.7421C3.62604 12.7952 3.9196 13.6401 4.5097 14.2768C5.11542 14.898 5.88557 15.2099 6.82019 15.2125ZM28.9383 5.56453L28.9025 18.0628L25.4211 18.0529L25.4252 16.6126C24.5186 17.6942 23.2086 18.2325 21.4952 18.2277C20.3113 18.2243 19.2373 17.958 18.273 17.4287C17.3243 16.8994 16.5788 16.1462 16.0364 15.1689C15.494 14.1917 15.2246 13.0604 15.2283 11.7749C15.232 10.4894 15.5078 9.35966 16.0558 8.38551C16.6038 7.41133 17.3536 6.66232 18.3053 6.13844C19.2726 5.61459 20.3482 5.35435 21.532 5.35772C23.1364 5.36227 24.3889 5.86914 25.2895 6.87839L25.2933 5.55422L28.9383 5.56453ZM22.1346 15.2559C23.0536 15.2585 23.8177 14.9509 24.427 14.3331C25.0363 13.6999 25.3425 12.8567 25.3455 11.8035C25.3485 10.7504 25.0472 9.91322 24.4415 9.29201C23.8358 8.65532 23.0734 8.33565 22.1544 8.33306C21.2198 8.33043 20.4478 8.64571 19.8385 9.27898C19.2292 9.89674 18.9231 10.7322 18.92 11.7853C18.917 12.8385 19.2183 13.6834 19.824 14.3201C20.4297 14.9413 21.1999 15.2532 22.1346 15.2559ZM33.9204 7.22803C34.3582 6.62526 34.9437 6.17004 35.6769 5.86237C36.4254 5.55473 37.2826 5.40229 38.2482 5.40502L38.2388 8.75028C37.8339 8.71818 37.5611 8.70191 37.4212 8.7015C36.3772 8.69857 35.5586 8.99051 34.965 9.57735C34.3717 10.1487 34.0732 11.0151 34.0698 12.1767L34.0529 18.0774L30.4079 18.067L30.4437 5.56878L33.9252 5.57865L33.9204 7.22803ZM45.2067 13.2072L43.4492 14.9213L43.4401 18.1039L39.795 18.0936L39.8445 0.856232L43.4895 0.86654L43.4614 10.6236L48.8034 5.62076L53.1491 5.63305L47.9 10.9149L53.5808 18.1326L49.1645 18.1201L45.2067 13.2072Z" fill="white"/>
<path d="M17.8767 30.7545C17.4222 29.9163 16.7628 29.2809 15.8983 28.8481C15.058 28.3914 14.0607 28.1615 12.9065 28.1582C10.9106 28.1525 9.30958 28.8055 8.10346 30.1171C6.89744 31.4046 6.29128 33.1365 6.28508 35.3121C6.27844 37.6311 6.89843 39.4499 8.1451 40.7685C9.4159 42.0631 11.1574 42.7136 13.3697 42.72C14.8847 42.724 16.1603 42.3454 17.1965 41.583C18.2567 40.821 19.0294 39.7235 19.5144 38.2904L11.6872 38.2682L11.7001 33.7493L25.1182 33.7874L25.1019 39.4897C24.6406 41.0184 23.855 42.4387 22.7451 43.7505C21.6592 45.0626 20.2735 46.1225 18.5879 46.9306C16.9023 47.7388 15.0015 48.1397 12.8853 48.134C10.3844 48.1269 8.14964 47.5825 6.18089 46.5011C4.23623 45.3958 2.71362 43.8731 1.61302 41.9334C0.536459 39.994 0.00174047 37.7807 0.00885921 35.2942C0.0159779 32.8077 0.563362 30.5978 1.65101 28.6643C2.76278 26.7069 4.29411 25.1931 6.24497 24.1227C8.19589 23.0284 10.4218 22.4848 12.9227 22.4919C15.9526 22.5005 18.4994 23.2369 20.5633 24.7012C22.6512 26.1655 24.0281 28.1897 24.694 30.7737L17.8767 30.7545ZM39.6744 48.4607C37.0536 48.4533 34.6866 47.8847 32.5737 46.7551C30.4847 45.6256 28.842 44.0786 27.6452 42.1146C26.4726 40.1271 25.8898 37.902 25.8969 35.4394C25.9039 32.9768 26.4994 30.7669 27.6833 28.8097C28.8913 26.8287 30.543 25.2793 32.6384 24.1615C34.7577 23.0438 37.1278 22.4887 39.749 22.4961C42.3701 22.5035 44.725 23.072 46.8138 24.2016C48.9027 25.3313 50.5453 26.89 51.7421 28.8777C52.9388 30.8417 53.5338 33.055 53.5267 35.5176C53.5196 37.9801 52.912 40.2018 51.7041 42.183C50.4962 44.1399 48.8444 45.6775 46.7491 46.7952C44.6538 47.913 42.2956 48.4681 39.6744 48.4607ZM39.6887 43.5117C41.1795 43.5157 42.5274 43.1849 43.7315 42.5189C44.9357 41.829 45.8763 40.8753 46.5533 39.6578C47.254 38.4406 47.6067 37.0547 47.6111 35.5007C47.6155 33.9467 47.2709 32.5591 46.577 31.3376C45.9072 30.1164 44.972 29.1694 43.7715 28.4966C42.5714 27.7999 41.2256 27.4494 39.7347 27.4452C38.2439 27.4409 36.8964 27.7838 35.6919 28.4737C34.4877 29.1398 33.5352 30.0814 32.8342 31.2988C32.1575 32.5163 31.8169 33.9019 31.8124 35.4559C31.8079 37.0099 32.1406 38.3979 32.8105 39.619C33.5044 40.8402 34.4514 41.7993 35.6519 42.496C36.8524 43.1691 38.1978 43.5073 39.6887 43.5117Z" fill="white"/>
<path d="M39.684 38.8927C38.6923 38.89 37.8588 38.5508 37.1835 37.8757C36.5082 37.2002 36.1721 36.3577 36.1748 35.3478C36.1779 34.3135 36.5187 33.4848 37.1977 32.8616C37.8771 32.2141 38.7123 31.8917 39.704 31.8948C40.6958 31.8975 41.5293 32.2246 42.2046 32.8758C42.8802 33.503 43.2163 34.3334 43.2136 35.3676C43.2105 36.3776 42.8697 37.2184 42.1903 37.8898C41.5113 38.5612 40.6758 38.8954 39.684 38.8927Z" fill="#E85D04"/>
</svg>
