<svg width="170" height="43" viewBox="0 0 170 43" fill="none" xmlns="http://www.w3.org/2000/svg">
<path d="M14.9101 9.33316C17.1277 9.3394 19.1368 9.85956 20.9374 10.8936C22.7677 11.8982 24.1976 13.328 25.2272 15.183C26.2568 17.0086 26.7681 19.1413 26.7612 21.5813C26.7542 24.0212 26.2306 26.1658 25.1904 28.0149C24.1503 29.8346 22.7123 31.2563 20.8762 32.28C19.0697 33.2744 17.0577 33.7685 14.8401 33.7621C11.7947 33.7535 9.40253 32.7913 7.66353 30.8756L7.63182 41.9436L0.713135 41.9241L0.805552 9.64597L7.4138 9.66469L7.40599 12.3986C9.12676 10.3457 11.6282 9.32387 14.9101 9.33316ZM13.6588 28.1145C15.4329 28.1195 16.8833 27.5357 18.0103 26.363C19.1669 25.161 19.748 23.5604 19.7537 21.5614C19.7595 19.5624 19.1874 17.9734 18.0377 16.7942C16.9176 15.5857 15.4705 14.979 13.6965 14.974C11.9224 14.969 10.4571 15.5675 9.30059 16.7695C8.17368 17.9422 7.60733 19.528 7.60158 21.527C7.59591 23.526 8.15306 25.1298 9.27316 26.3382C10.4229 27.5174 11.8849 28.1095 13.6588 28.1145ZM55.1986 9.79996L55.1308 33.5234L48.5224 33.5047L48.5303 30.7708C46.8095 32.8237 44.3229 33.8456 41.0705 33.8364C38.8234 33.83 36.7847 33.3245 34.9544 32.3198C33.1537 31.3152 31.7385 29.8854 30.709 28.0304C29.6794 26.1755 29.1681 24.0281 29.1751 21.5881C29.1821 19.1481 29.7057 17.0037 30.7458 15.1545C31.786 13.3055 33.2093 11.8837 35.0158 10.8893C36.8518 9.895 38.8933 9.40099 41.1405 9.40737C44.1859 9.41599 46.5633 10.3781 48.2727 12.2938L48.2799 9.78038L55.1986 9.79996ZM42.2841 28.1955C44.0286 28.2005 45.4791 27.6166 46.6356 26.444C47.7921 25.242 48.3733 23.6415 48.379 21.6425C48.3847 19.6435 47.8128 18.0544 46.6629 16.8752C45.5133 15.6667 44.0662 15.0599 42.3218 15.055C40.5478 15.05 39.0825 15.6485 37.9258 16.8505C36.7694 18.0231 36.1883 19.609 36.1826 21.608C36.1768 23.6069 36.7488 25.2107 37.8985 26.4193C39.0482 27.5984 40.5101 28.1905 42.2841 28.1955ZM64.8772 12.9581C65.7084 11.814 66.8196 10.9499 68.2108 10.3659C69.632 9.78197 71.2589 9.49259 73.092 9.49783L73.074 15.8476C72.3056 15.7866 71.7882 15.7557 71.5219 15.755C69.5406 15.7494 67.9872 16.3036 66.8603 17.4175C65.7335 18.5019 65.1671 20.1466 65.1608 22.3514L65.1287 33.5517L58.21 33.5321L58.2779 9.80865L64.8861 9.82737L64.8772 12.9581ZM86.0293 24.3066L82.6942 27.5603L82.6768 33.6014L75.7582 33.5818L75.8517 0.862793L82.7703 0.882373L82.7176 19.4025L92.8565 9.90648L101.106 9.92985L91.1422 19.9556L101.925 33.6559L93.5427 33.6321L86.0293 24.3066ZM140.439 10.0412L140.383 29.7961C140.371 34.1468 139.223 37.3773 136.94 39.4875C134.657 41.5976 131.328 42.6465 126.952 42.6341C124.646 42.6275 122.459 42.3421 120.391 41.7777C118.323 41.2133 116.61 40.4 115.253 39.3379L118.017 34.407C119.019 35.2329 120.289 35.8833 121.825 36.358C123.361 36.8621 124.898 37.1163 126.435 37.1206C128.831 37.1274 130.592 36.5885 131.718 35.504C132.874 34.449 133.455 32.8338 133.461 30.6584L133.465 29.6442C131.655 31.6087 129.139 32.5864 125.917 32.5773C123.728 32.5711 121.719 32.095 119.889 31.1491C118.088 30.1739 116.658 28.8176 115.598 27.0801C114.539 25.3427 114.012 23.3422 114.019 21.0786C114.025 18.815 114.564 16.8175 115.633 15.0861C116.702 13.3547 118.14 12.0212 119.946 11.0856C121.782 10.1207 123.794 9.64133 125.982 9.6475C129.441 9.65732 132.07 10.7965 133.867 13.0652L133.875 10.0226L140.439 10.0412ZM127.307 26.9369C129.14 26.9421 130.635 26.4171 131.791 25.3622C132.978 24.2778 133.572 22.8684 133.578 21.134C133.582 19.3996 132.996 18.0015 131.815 16.9399C130.666 15.8489 129.174 15.3008 127.341 15.2956C125.507 15.2905 123.998 15.8301 122.813 16.9144C121.626 17.9693 121.032 19.364 121.026 21.0985C121.021 22.8328 121.609 24.2456 122.789 25.3367C123.968 26.3983 125.474 26.9317 127.307 26.9369ZM156.168 34.1622C153.655 34.1551 151.394 33.6342 149.387 32.5996C147.409 31.5357 145.861 30.0762 144.743 28.2209C143.624 26.3658 143.068 24.2622 143.075 21.9105C143.082 19.5587 143.65 17.4584 144.779 15.6096C145.907 13.7607 147.464 12.3247 149.448 11.3014C151.462 10.2488 153.725 9.72602 156.238 9.73312C158.751 9.74022 160.997 10.2758 162.975 11.3397C164.953 12.3742 166.501 13.8191 167.619 15.6742C168.737 17.5294 169.293 19.6329 169.287 21.9847C169.279 24.3364 168.712 26.4367 167.583 28.2856C166.454 30.1344 164.898 31.5852 162.914 32.6379C160.93 33.6612 158.681 34.1693 156.168 34.1622ZM156.184 28.5179C157.958 28.5229 159.409 27.9391 160.536 26.7664C161.692 25.5643 162.273 23.9638 162.279 21.9648C162.285 19.9658 161.713 18.3768 160.563 17.1976C159.443 15.9892 157.996 15.3824 156.222 15.3774C154.448 15.3724 152.982 15.9708 151.826 17.1729C150.669 18.3455 150.088 19.9313 150.082 21.9303C150.077 23.9293 150.649 25.5331 151.799 26.7416C152.948 27.9208 154.41 28.5129 156.184 28.5179Z" fill="white"/>
<path d="M106.765 34.0224C105.553 34.0189 104.534 33.6045 103.708 32.779C102.883 31.9535 102.472 30.9235 102.475 29.6888C102.479 28.4247 102.896 27.4117 103.726 26.6498C104.556 25.8583 105.577 25.4643 106.79 25.4678C108.002 25.4712 109.021 25.871 109.846 26.6671C110.672 27.4337 111.083 28.4491 111.079 29.7132C111.076 30.9478 110.659 31.9756 109.828 32.7963C108.999 33.6171 107.977 34.0258 106.765 34.0224Z" fill="#E85D04"/>
</svg>
