<svg width="24" height="27" viewBox="0 0 24 27" fill="none" xmlns="http://www.w3.org/2000/svg">
<path d="M5.75 9V6.5C5.75 4.8424 6.40848 3.25269 7.58058 2.08058C8.75268 0.90848 10.3424 0.25 12 0.25C13.6576 0.25 15.2473 0.90848 16.4194 2.08058C17.5915 3.25269 18.25 4.8424 18.25 6.5V9H22C22.3315 9 22.6495 9.1317 22.8839 9.36612C23.1183 9.60054 23.25 9.91848 23.25 10.25V25.25C23.25 25.5815 23.1183 25.8995 22.8839 26.1339C22.6495 26.3683 22.3315 26.5 22 26.5H2C1.66848 26.5 1.35054 26.3683 1.11612 26.1339C0.881696 25.8995 0.75 25.5815 0.75 25.25V10.25C0.75 9.91848 0.881696 9.60054 1.11612 9.36612C1.35054 9.1317 1.66848 9 2 9H5.75ZM5.75 11.5H3.25V24H20.75V11.5H18.25V14H15.75V11.5H8.25V14H5.75V11.5ZM8.25 9H15.75V6.5C15.75 5.50544 15.3549 4.55161 14.6517 3.84835C13.9484 3.14509 12.9946 2.75 12 2.75C11.0054 2.75 10.0516 3.14509 9.34835 3.84835C8.64509 4.55161 8.25 5.50544 8.25 6.5V9Z" fill="white"/>
</svg>
