<svg width="31" height="30" viewBox="0 0 31 30" fill="none" xmlns="http://www.w3.org/2000/svg">
<g clip-path="url(#clip0_41_187)">
<path d="M15.5 25C18.1522 25 20.6957 23.9464 22.5711 22.0711C24.4464 20.1957 25.5 17.6522 25.5 15C25.5 12.3478 24.4464 9.8043 22.5711 7.92893C20.6957 6.05357 18.1522 5 15.5 5C12.8478 5 10.3043 6.05357 8.42893 7.92893C6.55357 9.8043 5.5 12.3478 5.5 15C5.5 17.6522 6.55357 20.1957 8.42893 22.0711C10.3043 23.9464 12.8478 25 15.5 25ZM15.5 27.5C8.59625 27.5 3 21.9037 3 15C3 8.09625 8.59625 2.5 15.5 2.5C22.4037 2.5 28 8.09625 28 15C28 21.9037 22.4037 27.5 15.5 27.5ZM11.6125 16.4625L8.49 15.4887C7.815 15.2825 7.81125 14.8175 8.64125 14.4837L20.8075 9.78375C21.5138 9.49625 21.9137 9.86 21.685 10.7712L19.6138 20.5463C19.4688 21.2425 19.05 21.4088 18.4688 21.0875L15.28 18.7275L13.7938 20.1625C13.6413 20.31 13.5175 20.4363 13.2825 20.4675C13.0487 20.5 12.8563 20.43 12.715 20.0425L11.6275 16.4538L11.6125 16.4625Z" fill="white"/>
</g>
<defs>
<clipPath id="clip0_41_187">
<rect width="30" height="30" fill="white" transform="translate(0.5)"/>
</clipPath>
</defs>
</svg>
