<svg width="29" height="29" viewBox="0 0 29 29" fill="none" xmlns="http://www.w3.org/2000/svg">
<path d="M14.3125 22.0275C12.2782 22.0275 10.3272 21.2194 8.88867 19.7809C7.45018 18.3424 6.64205 16.3914 6.64205 14.3571C6.64205 12.3228 7.45018 10.3717 8.88867 8.93326C10.3272 7.49477 12.2782 6.68663 14.3125 6.68663C16.3468 6.68663 18.2978 7.49477 19.7363 8.93326C21.1748 10.3717 21.983 12.3228 21.983 14.3571C21.983 16.3914 21.1748 18.3424 19.7363 19.7809C18.2978 21.2194 16.3468 22.0275 14.3125 22.0275ZM14.3125 19.4707C15.6687 19.4707 16.9694 18.932 17.9284 17.973C18.8874 17.014 19.4261 15.7133 19.4261 14.3571C19.4261 13.0009 18.8874 11.7002 17.9284 10.7412C16.9694 9.78221 15.6687 9.24345 14.3125 9.24345C12.9563 9.24345 11.6556 9.78221 10.6966 10.7412C9.73762 11.7002 9.19886 13.0009 9.19886 14.3571C9.19886 15.7133 9.73762 17.014 10.6966 17.973C11.6556 18.932 12.9563 19.4707 14.3125 19.4707ZM13.0341 0.294586H15.5909V4.12981H13.0341V0.294586ZM13.0341 24.5844H15.5909V28.4196H13.0341V24.5844ZM3.4652 5.31746L5.27287 3.50979L7.98438 6.22129L6.1767 8.02896L3.4652 5.31746ZM20.6406 22.4929L22.4483 20.6852L25.1598 23.3967L23.3521 25.2044L20.6406 22.4929ZM23.3521 3.50851L25.1598 5.31746L22.4483 8.02896L20.6406 6.22129L23.3521 3.50979V3.50851ZM6.1767 20.6852L7.98438 22.4929L5.27287 25.2044L3.4652 23.3967L6.1767 20.6852ZM28.375 13.0787V15.6355H24.5398V13.0787H28.375ZM4.08523 13.0787V15.6355H0.25V13.0787H4.08523Z" fill="black"/>
</svg>
