<svg width="31" height="30" viewBox="0 0 31 30" fill="none" xmlns="http://www.w3.org/2000/svg">
<path d="M15.3335 23.1729C13.1635 23.1729 11.0825 22.3158 9.54808 20.7902C8.01369 19.2647 7.15168 17.1956 7.15168 15.0381C7.15168 12.8806 8.01369 10.8115 9.54808 9.28595C11.0825 7.76038 13.1635 6.90333 15.3335 6.90333C17.5034 6.90333 19.5845 7.76038 21.1189 9.28595C22.6533 10.8115 23.5153 12.8806 23.5153 15.0381C23.5153 17.1956 22.6533 19.2647 21.1189 20.7902C19.5845 22.3158 17.5034 23.1729 15.3335 23.1729ZM15.3335 20.4613C16.7801 20.4613 18.1675 19.8899 19.1904 18.8729C20.2134 17.8558 20.788 16.4764 20.788 15.0381C20.788 13.5998 20.2134 12.2204 19.1904 11.2033C18.1675 10.1863 16.7801 9.61492 15.3335 9.61492C13.8869 9.61492 12.4995 10.1863 11.4766 11.2033C10.4536 12.2204 9.87895 13.5998 9.87895 15.0381C9.87895 16.4764 10.4536 17.8558 11.4766 18.8729C12.4995 19.8899 13.8869 20.4613 15.3335 20.4613ZM13.9699 0.124359H16.6971V4.19174H13.9699V0.124359ZM13.9699 25.8844H16.6971V29.9518H13.9699V25.8844ZM3.76304 5.45127L5.69122 3.53418L8.5835 6.40982L6.65531 8.32691L3.76304 5.45127ZM22.0835 23.6664L24.0117 21.7493L26.904 24.6249L24.9758 26.542L22.0835 23.6664ZM24.9758 3.53282L26.904 5.45127L24.0117 8.32691L22.0835 6.40982L24.9758 3.53418V3.53282ZM6.65531 21.7493L8.5835 23.6664L5.69122 26.542L3.76304 24.6249L6.65531 21.7493ZM30.3335 13.6823V16.3939H26.2426V13.6823H30.3335ZM4.42441 13.6823V16.3939H0.333496V13.6823H4.42441Z" fill="white"/>
</svg>
