<svg width="31" height="30" viewBox="0 0 31 30" fill="none" xmlns="http://www.w3.org/2000/svg">
<g clip-path="url(#clip0_41_184)">
<path d="M9.56627 23.1175L10.4713 23.6462C11.9974 24.5363 13.7333 25.0036 15.5 25C17.4778 25 19.4112 24.4135 21.0557 23.3147C22.7002 22.2159 23.9819 20.6541 24.7388 18.8268C25.4957 16.9996 25.6937 14.9889 25.3079 13.0491C24.922 11.1093 23.9696 9.32746 22.5711 7.92893C21.1726 6.53041 19.3907 5.578 17.4509 5.19215C15.5111 4.8063 13.5004 5.00433 11.6732 5.7612C9.84592 6.51808 8.28413 7.79981 7.18532 9.4443C6.08651 11.0888 5.50002 13.0222 5.50002 15C5.50002 16.795 5.97127 18.5163 6.85502 20.03L7.38252 20.935L6.56627 23.9363L9.56627 23.1175ZM3.00502 27.5L4.69502 21.29C3.58144 19.3811 2.99639 17.21 3.00002 15C3.00002 8.09625 8.59627 2.5 15.5 2.5C22.4038 2.5 28 8.09625 28 15C28 21.9037 22.4038 27.5 15.5 27.5C13.291 27.5036 11.1208 26.919 9.21252 25.8063L3.00502 27.5ZM10.9888 9.135C11.1563 9.1225 11.325 9.1225 11.4925 9.13C11.56 9.135 11.6275 9.1425 11.695 9.15C11.8938 9.1725 12.1125 9.29375 12.1863 9.46125C12.5588 10.3062 12.9213 11.1575 13.2713 12.0113C13.3488 12.2013 13.3025 12.445 13.155 12.6825C13.0536 12.8431 12.9438 12.9983 12.8263 13.1475C12.685 13.3287 12.3813 13.6612 12.3813 13.6612C12.3813 13.6612 12.2575 13.8088 12.305 13.9925C12.3225 14.0625 12.38 14.1638 12.4325 14.2488L12.5063 14.3675C12.8263 14.9013 13.2563 15.4425 13.7813 15.9525C13.9313 16.0975 14.0775 16.2462 14.235 16.385C14.82 16.9012 15.4825 17.3225 16.1975 17.635L16.2038 17.6375C16.31 17.6837 16.3638 17.7088 16.5188 17.775C16.5963 17.8075 16.6763 17.8363 16.7575 17.8575C16.8415 17.8789 16.9299 17.8749 17.0116 17.8459C17.0932 17.817 17.1645 17.7645 17.2163 17.695C18.1213 16.5988 18.2038 16.5275 18.2113 16.5275V16.53C18.2741 16.4714 18.3488 16.4269 18.4303 16.3995C18.5118 16.3721 18.5982 16.3625 18.6838 16.3713C18.7588 16.3763 18.835 16.39 18.905 16.4213C19.5688 16.725 20.655 17.1987 20.655 17.1987L21.3825 17.525C21.505 17.5838 21.6163 17.7225 21.62 17.8562C21.625 17.94 21.6325 18.075 21.6038 18.3225C21.5638 18.6462 21.4663 19.035 21.3688 19.2387C21.302 19.3778 21.2134 19.5052 21.1063 19.6162C20.9801 19.7487 20.842 19.8692 20.6938 19.9762C20.6425 20.0148 20.5904 20.0523 20.5375 20.0887C20.382 20.1874 20.2223 20.2791 20.0588 20.3638C19.7369 20.5347 19.3815 20.6328 19.0175 20.6512C18.7863 20.6637 18.555 20.6812 18.3225 20.6687C18.3125 20.6687 17.6125 20.56 17.6125 20.56C15.8353 20.0925 14.1918 19.2168 12.8125 18.0025C12.53 17.7538 12.2688 17.4863 12.0013 17.22C10.8888 16.1138 10.0488 14.92 9.53877 13.7925C9.27773 13.2391 9.13672 12.6368 9.12502 12.025C9.11986 11.2661 9.36795 10.5271 9.83002 9.925C9.92127 9.8075 10.0075 9.685 10.1563 9.54375C10.315 9.39375 10.415 9.31375 10.5238 9.25875C10.6684 9.18629 10.8261 9.14377 10.9875 9.13375L10.9888 9.135Z" fill="white"/>
</g>
<defs>
<clipPath id="clip0_41_184">
<rect width="30" height="30" fill="white" transform="translate(0.5)"/>
</clipPath>
</defs>
</svg>
