<svg width="31" height="30" viewBox="0 0 31 30" fill="none" xmlns="http://www.w3.org/2000/svg">
<g clip-path="url(#clip0_41_190)">
<path d="M25.0075 8.74375C24.9125 8.37125 24.6425 8.09 24.3337 8.00375C23.7875 7.85 21.125 7.5 15.5 7.5C9.875 7.5 7.215 7.85 6.66375 8.00375C6.35875 8.08875 6.08875 8.37 5.9925 8.74375C5.85625 9.27375 5.5 11.495 5.5 15C5.5 18.505 5.85625 20.725 5.9925 21.2575C6.0875 21.6288 6.3575 21.91 6.665 21.995C7.215 22.15 9.875 22.5 15.5 22.5C21.125 22.5 23.7863 22.15 24.3363 21.9963C24.6413 21.9113 24.9113 21.63 25.0075 21.2562C25.1438 20.7262 25.5 18.5 25.5 15C25.5 11.5 25.1438 9.275 25.0075 8.74375ZM27.4287 8.1225C28 10.35 28 15 28 15C28 15 28 19.65 27.4287 21.8775C27.1112 23.1088 26.1825 24.0775 25.0062 24.405C22.87 25 15.5 25 15.5 25C15.5 25 8.13375 25 5.99375 24.405C4.8125 24.0725 3.885 23.105 3.57125 21.8775C3 19.65 3 15 3 15C3 15 3 10.35 3.57125 8.1225C3.88875 6.89125 4.8175 5.9225 5.99375 5.595C8.13375 5 15.5 5 15.5 5C15.5 5 22.87 5 25.0062 5.595C26.1875 5.9275 27.115 6.895 27.4287 8.1225ZM13 19.375V10.625L20.5 15L13 19.375Z" fill="white"/>
</g>
<defs>
<clipPath id="clip0_41_190">
<rect width="30" height="30" fill="white" transform="translate(0.5)"/>
</clipPath>
</defs>
</svg>
